<svg xmlns="http://www.w3.org/2000/svg" viewBox="0 0 520 330"><defs><linearGradient id="a" x1="0" y1="0" x2="1" y2="1"><stop stop-color="#fce2d2"/><stop offset="1" stop-color="#f8f4ec"/></linearGradient></defs><rect width="520" height="330" rx="24" fill="url(#a)"/><g stroke="#d2c9b9" stroke-width="2" fill="none"><path d="M260 170L98 88M260 170L407 79M260 170L107 260M260 170L417 256"/><circle cx="260" cy="170" r="98" stroke-dasharray="4 8"/></g><rect x="211" y="121" width="98" height="98" rx="30" fill="#ef7047"/><g fill="none" stroke="#fff8ef" stroke-width="5" stroke-linecap="round"><circle cx="260" cy="155" r="11"/><path d="M237 188c0-22 46-22 46 0"/></g><g fill="#fffdf8" stroke="#e5ddd1"><rect x="44" y="52" width="108" height="72" rx="17"/><rect x="353" y="43" width="108" height="72" rx="17"/><rect x="53" y="224" width="108" height="72" rx="17"/><rect x="363" y="220" width="108" height="72" rx="17"/></g><g fill="#b4c6b3"><circle cx="73" cy="87" r="13"/><circle cx="381" cy="79" r="13"/><circle cx="82" cy="260" r="13"/><circle cx="392" cy="256" r="13"/></g><g stroke="#b4b3aa" stroke-width="5" stroke-linecap="round"><path d="M98 80h31M98 94h19M406 72h31M406 86h19M107 253h31M107 267h19M417 249h31M417 263h19"/></g></svg>